<svg width="24" height="24" viewBox="0 0 24 24" fill="none" xmlns="http://www.w3.org/2000/svg">
<path d="M19.1614 10.3125C18.5941 10.3125 18.0267 10.7344 18.0267 11.2969L17.8848 18.75H5.8281L5.68625 11.4375C5.68625 10.875 5.26072 10.4531 4.5515 10.4531C3.98413 10.4531 3.55859 10.875 3.55859 11.5781L3.70044 20.0156C3.70044 20.5781 4.12597 21 4.83519 21H19.0196C19.587 21 20.0125 20.5781 20.1543 20.0156L20.2962 11.5781C20.1543 10.875 19.7288 10.4531 19.1614 10.3125Z" fill="#252117"/>
<path d="M20.8652 6.23438H15.7589V4.125C15.7589 3.5625 15.3333 3 14.6241 3H9.0922C8.52482 3 7.95745 3.42188 7.95745 4.125V6.23438H3.13475C2.42553 6.23438 2 6.65625 2 7.35938C2 8.0625 2.42553 8.48438 3.13475 8.48438H9.0922H14.766H20.8652C21.4326 8.48438 22 8.0625 22 7.35938C22 6.65625 21.4326 6.23438 20.8652 6.23438ZM10.0851 6.23438V5.10938H13.6312V6.23438H10.0851Z" fill="#252117"/>
</svg>
