<svg width="18" height="18" viewBox="0 0 18 18" fill="none" xmlns="http://www.w3.org/2000/svg">
<path d="M15.0228 7.14776L9.39778 12.7728C9.34555 12.825 9.28354 12.8664 9.21529 12.8947C9.14704 12.923 9.07389 12.9375 9.00002 12.9375C8.92615 12.9375 8.853 12.923 8.78475 12.8947C8.71651 12.8664 8.6545 12.825 8.60226 12.7728L2.97726 7.14776C2.89859 7.06909 2.84502 6.96886 2.82331 6.85974C2.8016 6.75063 2.81274 6.63752 2.85532 6.53474C2.8979 6.43195 2.97 6.3441 3.0625 6.28229C3.15501 6.22048 3.26377 6.1875 3.37502 6.1875H14.625C14.7363 6.1875 14.845 6.22048 14.9375 6.28229C15.03 6.3441 15.1021 6.43195 15.1447 6.53474C15.1873 6.63752 15.1984 6.75063 15.1767 6.85974C15.155 6.96886 15.1014 7.06909 15.0228 7.14776Z" fill="#C8C8C8"/>
</svg>









































