<svg width="20" height="20" viewBox="0 0 20 20" fill="none" xmlns="http://www.w3.org/2000/svg">
<path d="M15 20H5C2.2 20 0 17.8 0 15V5C0 2.2 2.2 0 5 0H15C17.8 0 20 2.2 20 5V15C20 17.8 17.8 20 15 20Z" fill="#226AF5"/>
<path d="M16.5 4.5H3.5C3.22344 4.5 3 4.72344 3 5V15C3 15.2766 3.22344 15.5 3.5 15.5H16.5C16.7766 15.5 17 15.2766 17 15V5C17 4.72344 16.7766 4.5 16.5 4.5ZM15.875 6.23125V14.375H4.125V6.23125L3.69375 5.89531L4.30781 5.10625L4.97656 5.62656H15.025L15.6938 5.10625L16.3078 5.89531L15.875 6.23125ZM15.025 5.625L10 9.53125L4.975 5.625L4.30625 5.10469L3.69219 5.89375L4.12344 6.22969L9.46094 10.3797C9.61444 10.4989 9.80328 10.5637 9.99766 10.5637C10.192 10.5637 10.3809 10.4989 10.5344 10.3797L15.875 6.23125L16.3062 5.89531L15.6922 5.10625L15.025 5.625Z" fill="white"/>
</svg>
