<svg width="24" height="24" viewBox="0 0 24 24" fill="none" xmlns="http://www.w3.org/2000/svg">
<path d="M12 22C17.5228 22 22 17.5228 22 12C22 6.47715 17.5228 2 12 2C6.47715 2 2 6.47715 2 12C2 17.5228 6.47715 22 12 22Z" stroke="#A0AFBF" stroke-width="1.5" stroke-miterlimit="10"/>
<path d="M8.53886 12.6402C9.74256 12.6402 10.7183 11.6644 10.7183 10.4607C10.7183 9.25704 9.74256 8.28125 8.53886 8.28125C7.33517 8.28125 6.35938 9.25704 6.35938 10.4607C6.35938 11.6644 7.33517 12.6402 8.53886 12.6402Z" fill="#A0AFBF"/>
<path d="M16.1033 12.6402C17.307 12.6402 18.2828 11.6644 18.2828 10.4607C18.2828 9.25704 17.307 8.28125 16.1033 8.28125C14.8996 8.28125 13.9238 9.25704 13.9238 10.4607C13.9238 11.6644 14.8996 12.6402 16.1033 12.6402Z" fill="#A0AFBF"/>
<path d="M16.2318 16.1019C13.9241 13.7942 10.2061 13.7942 7.89844 16.1019" stroke="#A0AFBF" stroke-width="1.5" stroke-miterlimit="10"/>
</svg>
