<svg width="24" height="24" viewBox="0 0 24 24" fill="none" xmlns="http://www.w3.org/2000/svg">
<path d="M12 22C17.5228 22 22 17.5228 22 12C22 6.47715 17.5228 2 12 2C6.47715 2 2 6.47715 2 12C2 17.5228 6.47715 22 12 22Z" stroke="#A0AFBF" stroke-width="1.5" stroke-miterlimit="10"/>
<path d="M8.53886 12.6402C9.74256 12.6402 10.7183 11.6644 10.7183 10.4607C10.7183 9.25704 9.74256 8.28125 8.53886 8.28125C7.33516 8.28125 6.35938 9.25704 6.35938 10.4607C6.35938 11.6644 7.33516 12.6402 8.53886 12.6402Z" fill="#A0AFBF"/>
<path d="M15.9744 12.6402C17.1781 12.6402 18.1539 11.6644 18.1539 10.4607C18.1539 9.25704 17.1781 8.28125 15.9744 8.28125C14.7707 8.28125 13.7949 9.25704 13.7949 10.4607C13.7949 11.6644 14.7707 12.6402 15.9744 12.6402Z" fill="#A0AFBF"/>
<path d="M7.76953 16.1016C10.0772 18.4093 13.7952 18.4093 16.1029 16.1016" stroke="#A0AFBF" stroke-width="1.5" stroke-miterlimit="10"/>
</svg>
