<svg width="24" height="24" viewBox="0 0 24 24" fill="none" xmlns="http://www.w3.org/2000/svg">
<path d="M12 22C17.5229 22 22 17.5228 22 12C22 6.47715 17.5229 2 12 2C6.47716 2 2 6.47715 2 12C2 17.5228 6.47716 22 12 22Z" fill="white" stroke="white" stroke-width="1.5" stroke-miterlimit="10"/>
<path d="M9.96835 10.4607C9.96835 11.2502 9.32834 11.8902 8.53886 11.8902C7.74938 11.8902 7.10938 11.2502 7.10938 10.4607C7.10938 9.67125 7.74938 9.03125 8.53886 9.03125C9.32835 9.03125 9.96835 9.67126 9.96835 10.4607Z" fill="#252117" stroke="#252117" stroke-width="1.5"/>
<path d="M17.4039 10.4607C17.4039 11.2502 16.7639 11.8902 15.9744 11.8902C15.1849 11.8902 14.5449 11.2502 14.5449 10.4607C14.5449 9.67126 15.1849 9.03125 15.9744 9.03125C16.7639 9.03125 17.4039 9.67125 17.4039 10.4607Z" fill="#252117" stroke="#252117" stroke-width="1.5"/>
<path d="M16.2311 16.1016H7.76953" stroke="#252117" stroke-width="1.5" stroke-miterlimit="10"/>
</svg>
