<svg width="24" height="24" viewBox="0 0 24 24" fill="none" xmlns="http://www.w3.org/2000/svg">
<path d="M17.5567 21.7484C17.2678 21.7481 16.9849 21.6656 16.7412 21.5104L12.013 18.5147C12.0095 18.5121 12.0052 18.5107 12.0008 18.5107C11.9964 18.5107 11.9921 18.5121 11.9886 18.5147L7.59455 21.2987C7.3113 21.4795 6.98004 21.5706 6.64415 21.5601C6.30826 21.5495 5.98339 21.4378 5.71205 21.2395C5.43113 21.0361 5.21819 20.7526 5.1011 20.4261C4.984 20.0996 4.96821 19.7454 5.0558 19.4098L6.32283 14.4261C6.32624 14.4136 6.32628 14.4005 6.32294 14.3881C6.31959 14.3756 6.31298 14.3643 6.3038 14.3553L2.06367 10.8262C1.82202 10.6254 1.64654 10.3564 1.56017 10.0544C1.4738 9.75229 1.48055 9.4312 1.57955 9.13303C1.67284 8.83889 1.85268 8.57972 2.09559 8.3894C2.33849 8.19909 2.63316 8.08646 2.94108 8.06625L8.47842 7.70691C8.48576 7.7051 8.49249 7.70139 8.49793 7.69613C8.50336 7.69088 8.50731 7.68428 8.50936 7.677L10.5747 2.47631C10.6863 2.18878 10.8822 1.94169 11.1367 1.76746C11.3912 1.59323 11.6924 1.5 12.0008 1.5C12.3093 1.5 12.6105 1.59323 12.865 1.76746C13.1195 1.94169 13.3154 2.18878 13.427 2.47631L15.4923 7.67691C15.4944 7.68418 15.4983 7.69078 15.5037 7.69605C15.5091 7.70132 15.5158 7.70507 15.5231 7.70691L21.0605 8.06625C21.3684 8.08646 21.6631 8.19906 21.906 8.38934C22.1489 8.57963 22.3287 8.83874 22.422 9.13285C22.521 9.43101 22.5278 9.7521 22.4414 10.0542C22.3551 10.3562 22.1796 10.6252 21.9379 10.826L17.698 14.355C17.6888 14.364 17.6821 14.3754 17.6788 14.3879C17.6754 14.4004 17.6755 14.4135 17.679 14.426L19.0451 19.7999C19.1243 20.1038 19.1099 20.4245 19.0038 20.7201C18.8978 21.0157 18.7049 21.2724 18.4505 21.4566C18.1909 21.6458 17.878 21.7479 17.5568 21.7483L17.5567 21.7484ZM12.0008 17.0124C12.2892 17.0121 12.5718 17.0936 12.8157 17.2477L17.544 20.2433C17.5482 20.2463 17.5528 20.2486 17.5576 20.2502C17.5691 20.2444 17.579 20.2358 17.5863 20.2253C17.5916 20.2171 17.5948 20.2077 17.5956 20.198C17.5965 20.1883 17.595 20.1786 17.5913 20.1696L16.2252 14.7955C16.1524 14.5086 16.162 14.2069 16.2527 13.9251C16.3435 13.6433 16.5117 13.3928 16.7383 13.2022L20.9783 9.67313C20.9897 9.66456 20.9977 9.65224 21.0009 9.63834C21.0041 9.62445 21.0022 9.60987 20.9957 9.59719C20.9851 9.56466 20.9741 9.56391 20.9633 9.56325L15.426 9.20391C15.1354 9.18315 14.8566 9.08078 14.6217 8.90857C14.3868 8.73637 14.2053 8.50132 14.0981 8.2305L12.0328 3.03C12.021 3 12.0134 3 12.0008 3C11.9882 3 11.9806 3 11.9687 3.03L9.90342 8.2306C9.79617 8.50139 9.61464 8.7364 9.37973 8.90859C9.14482 9.08077 8.86607 9.18314 8.57555 9.20391L3.0383 9.56325C3.02752 9.56391 3.01645 9.56466 3.00586 9.59719C2.99935 9.60987 2.99753 9.62445 3.00072 9.63834C3.00391 9.65224 3.01191 9.66456 3.0233 9.67313L7.26342 13.2023C7.48993 13.3929 7.65818 13.6434 7.74892 13.9252C7.83966 14.2069 7.84923 14.5086 7.77652 14.7955L6.50958 19.7793C6.49537 19.8238 6.49577 19.8716 6.51071 19.9159C6.52566 19.9601 6.55437 19.9984 6.59264 20.0252C6.62028 20.0485 6.65494 20.0617 6.69105 20.0629C6.72716 20.0641 6.7626 20.053 6.79167 20.0316L11.1859 17.2477C11.4298 17.0936 11.7124 17.012 12.0008 17.0123V17.0124Z" fill="#A0AFBF"/>
</svg>
