<svg width="14" height="16" viewBox="0 0 14 16" fill="none" xmlns="http://www.w3.org/2000/svg">
<path d="M2.19822 11.1979C2.47273 11.1979 2.74724 11.0646 2.8845 10.9313L5.90411 7.99792L5.9041 14.9313C5.9041 15.4646 6.31587 15.9979 7.00214 15.9979C7.68842 15.9979 8.10018 15.5979 8.10018 14.9313L8.10018 7.99792L11.1198 10.9313C11.5316 11.3313 12.2178 11.3313 12.6296 10.9313C13.0414 10.5313 13.0414 9.86459 12.6296 9.46458L7.82567 4.79792C7.68842 4.66458 7.41391 4.53125 7.1394 4.53125C6.86489 4.53125 6.59038 4.66458 6.31587 4.79792L1.51195 9.46458C1.10018 9.86458 1.10018 10.5312 1.51195 10.9313C1.78646 11.0646 2.06097 11.1979 2.19822 11.1979Z" fill="#E4AA24"/>
<path d="M1.09804 2.13281L12.902 2.13281C13.451 2.13281 14 1.73281 14 1.06615C14 0.399479 13.5882 -0.000521696 12.902 -0.000521756L1.09804 -0.000522788C0.549019 -0.000522836 -8.02141e-07 0.399477 -8.60423e-07 1.06614C-9.18705e-07 1.73281 0.549019 2.13281 1.09804 2.13281Z" fill="#E4AA24"/>
</svg>
