<svg width="18" height="14" viewBox="0 0 18 14" fill="none" xmlns="http://www.w3.org/2000/svg">
<path d="M17.25 10.3751H15.2653C15.1039 9.83342 14.7719 9.35828 14.3186 9.02044C13.8654 8.68259 13.3153 8.50009 12.75 8.50009C12.1847 8.50009 11.6346 8.68259 11.1814 9.02044C10.7281 9.35828 10.3961 9.83342 10.2347 10.3751H0.75C0.551088 10.3751 0.360322 10.4542 0.21967 10.5948C0.0790178 10.7355 0 10.9262 0 11.1251C0 11.3241 0.0790178 11.5148 0.21967 11.6555C0.360322 11.7961 0.551088 11.8751 0.75 11.8751H10.2347C10.3961 12.4169 10.7281 12.892 11.1814 13.2299C11.6346 13.5677 12.1847 13.7502 12.75 13.7502C13.3153 13.7502 13.8654 13.5677 14.3186 13.2299C14.7719 12.892 15.1039 12.4169 15.2653 11.8751H17.25C17.4489 11.8751 17.6397 11.7961 17.7803 11.6555C17.921 11.5148 18 11.3241 18 11.1251C18 10.9262 17.921 10.7355 17.7803 10.5948C17.6397 10.4542 17.4489 10.3751 17.25 10.3751ZM12.75 12.2501C12.5275 12.2501 12.31 12.1842 12.125 12.0605C11.94 11.9369 11.7958 11.7612 11.7106 11.5557C11.6255 11.3501 11.6032 11.1239 11.6466 10.9057C11.69 10.6874 11.7972 10.487 11.9545 10.3297C12.1118 10.1723 12.3123 10.0652 12.5305 10.0218C12.7488 9.97835 12.975 10.0006 13.1805 10.0858C13.3861 10.1709 13.5618 10.3151 13.6854 10.5001C13.809 10.6851 13.875 10.9026 13.875 11.1251C13.8747 11.4234 13.756 11.7094 13.5451 11.9203C13.3342 12.1312 13.0483 12.2498 12.75 12.2501ZM0.75 3.62505H4.23469C4.39613 4.16678 4.72815 4.64192 5.18135 4.97976C5.63456 5.31761 6.18473 5.5001 6.75 5.5001C7.31527 5.5001 7.86544 5.31761 8.31865 4.97976C8.77185 4.64192 9.10388 4.16678 9.26531 3.62505H17.25C17.4489 3.62505 17.6397 3.54604 17.7803 3.40538C17.921 3.26473 18 3.07396 18 2.87505C18 2.67614 17.921 2.48537 17.7803 2.34472C17.6397 2.20407 17.4489 2.12505 17.25 2.12505H9.26531C9.10388 1.58332 8.77185 1.10819 8.31865 0.770343C7.86544 0.432499 7.31527 0.25 6.75 0.25C6.18473 0.25 5.63456 0.432499 5.18135 0.770343C4.72815 1.10819 4.39613 1.58332 4.23469 2.12505H0.75C0.551088 2.12505 0.360322 2.20407 0.21967 2.34472C0.0790178 2.48537 0 2.67614 0 2.87505C0 3.07396 0.0790178 3.26473 0.21967 3.40538C0.360322 3.54604 0.551088 3.62505 0.75 3.62505ZM6.75 1.75005C6.9725 1.75005 7.19001 1.81603 7.37502 1.93965C7.56002 2.06327 7.70422 2.23897 7.78936 2.44453C7.87451 2.6501 7.89679 2.8763 7.85338 3.09453C7.80998 3.31276 7.70283 3.51321 7.5455 3.67055C7.38816 3.82788 7.18771 3.93503 6.96948 3.97844C6.75125 4.02184 6.52505 3.99957 6.31948 3.91442C6.11391 3.82927 5.93821 3.68507 5.8146 3.50007C5.69098 3.31506 5.625 3.09756 5.625 2.87505C5.62532 2.57678 5.74395 2.29082 5.95486 2.07991C6.16577 1.86901 6.45173 1.75037 6.75 1.75005Z" fill="#252117"/>
</svg>
