<svg width="12" height="12" viewBox="0 0 12 12" fill="none" xmlns="http://www.w3.org/2000/svg">
<path d="M6 1.125C5.03582 1.125 4.09329 1.41091 3.2916 1.94659C2.48991 2.48226 1.86507 3.24363 1.49609 4.13442C1.12711 5.02521 1.03057 6.00541 1.21867 6.95107C1.40678 7.89672 1.87108 8.76536 2.55286 9.44715C3.23464 10.1289 4.10328 10.5932 5.04894 10.7813C5.99459 10.9694 6.97479 10.8729 7.86558 10.5039C8.75637 10.1349 9.51774 9.51009 10.0534 8.7084C10.5891 7.90671 10.875 6.96418 10.875 6C10.8735 4.70752 10.3595 3.46839 9.44553 2.55447C8.53161 1.64055 7.29248 1.12646 6 1.125ZM6 10.125C5.18415 10.125 4.38663 9.88307 3.70827 9.42981C3.02992 8.97655 2.50121 8.33231 2.189 7.57857C1.87679 6.82482 1.7951 5.99542 1.95426 5.19525C2.11343 4.39508 2.5063 3.66008 3.08319 3.08318C3.66008 2.50629 4.39508 2.11342 5.19525 1.95426C5.99543 1.7951 6.82483 1.87679 7.57857 2.189C8.33232 2.50121 8.97655 3.02992 9.42981 3.70827C9.88308 4.38663 10.125 5.18415 10.125 6C10.1238 7.09364 9.68877 8.14213 8.91545 8.91545C8.14213 9.68876 7.09364 10.1238 6 10.125ZM6.75 8.25C6.75 8.34946 6.71049 8.44484 6.64017 8.51517C6.56984 8.58549 6.47446 8.625 6.375 8.625H6C5.90055 8.625 5.80516 8.58549 5.73484 8.51517C5.66451 8.44484 5.625 8.34946 5.625 8.25V6C5.52555 6 5.43016 5.96049 5.35984 5.89016C5.28951 5.81984 5.25 5.72446 5.25 5.625C5.25 5.52554 5.28951 5.43016 5.35984 5.35984C5.43016 5.28951 5.52555 5.25 5.625 5.25H6C6.09946 5.25 6.19484 5.28951 6.26517 5.35984C6.33549 5.43016 6.375 5.52554 6.375 5.625V7.875C6.47446 7.875 6.56984 7.91451 6.64017 7.98483C6.71049 8.05516 6.75 8.15054 6.75 8.25ZM5.60222 4.33523C5.53682 4.26982 5.48856 4.18929 5.46171 4.10077C5.43487 4.01225 5.43027 3.91847 5.44832 3.82775C5.46637 3.73703 5.50651 3.65216 5.5652 3.58066C5.62388 3.50916 5.69929 3.45323 5.78476 3.41783C5.87022 3.38244 5.96309 3.36866 6.05514 3.37773C6.1472 3.3868 6.2356 3.41843 6.31251 3.46982C6.38942 3.52121 6.45247 3.59077 6.49608 3.67235C6.53968 3.75393 6.5625 3.845 6.5625 3.9375C6.56247 4.04874 6.52945 4.15766 6.46763 4.25014C6.4058 4.34262 6.31794 4.41469 6.21516 4.45724C6.11238 4.49979 5.99929 4.51091 5.89019 4.4892C5.78109 4.46748 5.68087 4.4139 5.60222 4.33523Z" fill="#A0AFBF"/>
</svg>
