<svg width="18" height="18" viewBox="0 0 18 18" fill="none" xmlns="http://www.w3.org/2000/svg">
<path d="M16.3031 5.63316C16.1447 5.45384 15.95 5.31023 15.7319 5.21185C15.5138 5.11347 15.2773 5.06256 15.0381 5.0625H11.25V3.9375C11.2491 3.19184 10.9526 2.47697 10.4253 1.94971C9.89803 1.42245 9.18316 1.12586 8.4375 1.125C8.33304 1.125 8.23065 1.15408 8.14179 1.209C8.05293 1.26391 7.98113 1.34249 7.93441 1.43592L5.27724 6.75H2.25C1.95173 6.75034 1.66578 6.86897 1.45487 7.07987C1.24397 7.29078 1.12533 7.57673 1.125 7.875V14.0625C1.12533 14.3608 1.24397 14.6467 1.45487 14.8576C1.66578 15.0685 1.95173 15.1872 2.25 15.1875H14.1943C14.6055 15.1869 15.0023 15.0365 15.3106 14.7644C15.6188 14.4923 15.8173 14.1172 15.8689 13.7093L16.7127 6.95932C16.7422 6.72189 16.721 6.48087 16.6504 6.25225C16.5799 6.02364 16.4615 5.81263 16.3032 5.63323L16.3031 5.63316ZM2.24993 7.875H5.06243V14.0625H2.24993V7.875ZM15.5962 6.81975L14.7525 13.5697C14.7353 13.7057 14.6691 13.8308 14.5664 13.9215C14.4636 14.0122 14.3313 14.0623 14.1943 14.0625H6.18743V7.44525L8.76874 2.28263C9.15098 2.35972 9.49482 2.56659 9.74198 2.86819C9.98914 3.16979 10.1244 3.54756 10.1249 3.9375V5.625C10.1249 5.77418 10.1842 5.91726 10.2897 6.02275C10.3952 6.12824 10.5382 6.1875 10.6874 6.1875H15.038C15.1178 6.18749 15.1966 6.20445 15.2693 6.23724C15.342 6.27004 15.4069 6.31792 15.4597 6.37771C15.5125 6.4375 15.552 6.50784 15.5755 6.58405C15.5991 6.66026 15.6061 6.7406 15.5962 6.81975Z" fill="#C8C8C8"/>
</svg>
