<svg width="40" height="40" viewBox="0 0 40 40" fill="none" xmlns="http://www.w3.org/2000/svg">
<g clip-path="url(#clip0)">
<rect width="40" height="40" rx="20" fill="#D1CDB2"/>
<path d="M19.876 8V23.4286H5V44H19.876H34.7521V8H19.876ZM10.4545 34.9388H6.98347V31.5102H10.4545V34.9388ZM10.4545 28.5714H6.98347V24.898H10.4545V28.5714ZM17.1488 34.9388H13.4298V31.5102H16.9008V34.9388H17.1488ZM17.1488 28.5714H13.4298V24.898H16.9008V28.5714H17.1488ZM26.0744 26.8571H22.3554V23.1837H25.8264V26.8571H26.0744ZM26.0744 20.2449H22.3554V16.5714H25.8264V20.2449H26.0744ZM26.0744 13.6327H22.3554V9.95918H25.8264V13.6327H26.0744ZM32.5207 26.8571H29.0496V23.1837H32.5207V26.8571ZM32.5207 20.2449H29.0496V16.5714H32.5207V20.2449ZM32.5207 13.6327H29.0496V9.95918H32.5207V13.6327Z" fill="#FCF6E8"/>
</g>
<defs>
<clipPath id="clip0">
<rect width="40" height="40" rx="20" fill="white"/>
</clipPath>
</defs>
</svg>
