<svg width="17" height="16" viewBox="0 0 17 16" fill="none" xmlns="http://www.w3.org/2000/svg">
<g clip-path="url(#clip0)">
<g clip-path="url(#clip1)">
<path d="M8.21628 15.8779C12.6008 15.8779 16.1552 12.3235 16.1552 7.93893C16.1552 3.55438 12.6008 0 8.21628 0C3.83172 0 0.277344 3.55438 0.277344 7.93893C0.277344 12.3235 3.83172 15.8779 8.21628 15.8779Z" fill="#383734"/>
<path d="M4.30627 9.03832C4.91336 9.03832 5.4055 8.54617 5.4055 7.93908C5.4055 7.33199 4.91336 6.83984 4.30627 6.83984C3.69918 6.83984 3.20703 7.33199 3.20703 7.93908C3.20703 8.54617 3.69918 9.03832 4.30627 9.03832Z" fill="white"/>
<path d="M8.21642 9.03832C8.82352 9.03832 9.31566 8.54617 9.31566 7.93908C9.31566 7.33199 8.82352 6.83984 8.21642 6.83984C7.60933 6.83984 7.11719 7.33199 7.11719 7.93908C7.11719 8.54617 7.60933 9.03832 8.21642 9.03832Z" fill="white"/>
<path d="M12.2438 9.03832C12.8509 9.03832 13.343 8.54617 13.343 7.93908C13.343 7.33199 12.8509 6.83984 12.2438 6.83984C11.6367 6.83984 11.1445 7.33199 11.1445 7.93908C11.1445 8.54617 11.6367 9.03832 12.2438 9.03832Z" fill="white"/>
</g>
</g>
<defs>
<clipPath id="clip0">
<rect width="16" height="16" fill="white" transform="translate(0.277344)"/>
</clipPath>
<clipPath id="clip1">
<rect width="16" height="16" fill="white" transform="translate(0.277344)"/>
</clipPath>
</defs>
</svg>
