<svg width="18" height="18" viewBox="0 0 18 18" fill="none" xmlns="http://www.w3.org/2000/svg">
<path d="M2.25 4.78125C2.25 4.63207 2.30926 4.48899 2.41475 4.3835C2.52024 4.27801 2.66332 4.21875 2.8125 4.21875H15.1875C15.3367 4.21875 15.4798 4.27801 15.5852 4.3835C15.6907 4.48899 15.75 4.63207 15.75 4.78125C15.75 4.93043 15.6907 5.07351 15.5852 5.179C15.4798 5.28449 15.3367 5.34375 15.1875 5.34375H2.8125C2.66332 5.34375 2.52024 5.28449 2.41475 5.179C2.30926 5.07351 2.25 4.93043 2.25 4.78125ZM2.8125 8.15625H11.8125C11.9617 8.15625 12.1048 8.09699 12.2102 7.9915C12.3157 7.88601 12.375 7.74293 12.375 7.59375C12.375 7.44457 12.3157 7.30149 12.2102 7.196C12.1048 7.09051 11.9617 7.03125 11.8125 7.03125H2.8125C2.66332 7.03125 2.52024 7.09051 2.41475 7.196C2.30926 7.30149 2.25 7.44457 2.25 7.59375C2.25 7.74293 2.30926 7.88601 2.41475 7.9915C2.52024 8.09699 2.66332 8.15625 2.8125 8.15625ZM15.1875 9.84375H2.81292C2.66374 9.84375 2.52066 9.90301 2.41517 10.0085C2.30968 10.114 2.25042 10.2571 2.25042 10.4062C2.25042 10.5554 2.30968 10.6985 2.41517 10.804C2.52066 10.9095 2.66374 10.9688 2.81292 10.9688H15.1875C15.3367 10.9688 15.4798 10.9095 15.5852 10.804C15.6907 10.6985 15.75 10.5554 15.75 10.4062C15.75 10.2571 15.6907 10.114 15.5852 10.0085C15.4798 9.90301 15.3367 9.84375 15.1875 9.84375ZM11.8125 12.6562H2.81292C2.66374 12.6562 2.52066 12.7155 2.41517 12.821C2.30968 12.9265 2.25042 13.0696 2.25042 13.2188C2.25042 13.3679 2.30968 13.511 2.41517 13.6165C2.52066 13.722 2.66374 13.7812 2.81292 13.7812H11.8125C11.9617 13.7812 12.1048 13.722 12.2102 13.6165C12.3157 13.511 12.375 13.3679 12.375 13.2188C12.375 13.0696 12.3157 12.9265 12.2102 12.821C12.1048 12.7155 11.9617 12.6562 11.8125 12.6562Z" fill="#C8C8C8"/>
</svg>
