<svg width="52" height="52" viewBox="0 0 52 52" fill="none" xmlns="http://www.w3.org/2000/svg">
<rect x="0.5" y="0.5" width="51" height="51" rx="25.5" fill="white"/>
<path d="M33.625 22.6918L30.3084 19.3752C30.1981 19.2649 30.0672 19.1774 29.9231 19.1177C29.7791 19.0581 29.6247 19.0273 29.4687 19.0273C29.3128 19.0273 29.1584 19.0581 29.0143 19.1177C28.8702 19.1774 28.7393 19.2649 28.629 19.3752L26.674 21.3302V21.3303L26.6738 21.3304L19.7229 28.2814C19.6122 28.3914 19.5245 28.5223 19.4648 28.6664C19.4051 28.8105 19.3746 28.9651 19.375 29.1211V32.4377C19.3754 32.7525 19.5006 33.0543 19.7232 33.277C19.9458 33.4996 20.2477 33.6248 20.5625 33.6252H24.125C24.203 33.6252 24.2802 33.6098 24.3522 33.58C24.4243 33.5501 24.4897 33.5064 24.5449 33.4513L33.625 24.3711C33.8473 24.1482 33.9722 23.8462 33.9722 23.5314C33.9722 23.2166 33.8473 22.9147 33.625 22.6918ZM23.8791 32.4377H20.5625V29.1211L27.0938 22.5898L30.4104 25.9064L23.8791 32.4377ZM31.25 25.0668L27.9335 21.7502L29.4688 20.2148L32.7854 23.5314L31.25 25.0668Z" fill="#252117"/>
<rect x="0.5" y="0.5" width="51" height="51" rx="25.5" stroke="#252117"/>
</svg>
