<svg width="14" height="18" viewBox="0 0 14 18" fill="none" xmlns="http://www.w3.org/2000/svg">
<path fill-rule="evenodd" clip-rule="evenodd" d="M13.8896 17.0459H0.889648C0.889648 13.5004 3.79047 10.5996 7.33593 10.5996C10.9888 10.5996 13.8896 13.5004 13.8896 17.0459Z" fill="#E4AA24"/>
<path d="M7.33564 2.11157C8.94721 2.11157 10.3439 3.40083 10.3439 5.11983C10.3439 6.73141 9.05465 8.1281 7.33564 8.1281C5.61663 8.1281 4.43481 6.73141 4.43481 5.11983C4.43481 3.40083 5.72407 2.11157 7.33564 2.11157ZM7.33564 0.5C4.86456 0.5 2.82324 2.54132 2.82324 5.11983C2.82324 7.69835 4.86456 9.73967 7.44308 9.73967C10.0216 9.73967 12.0629 7.69835 12.0629 5.11983C11.9555 2.54132 9.91415 0.5 7.33564 0.5Z" fill="#E4AA24"/>
</svg>
