<svg width="20" height="20" viewBox="0 0 20 20" fill="none" xmlns="http://www.w3.org/2000/svg">
<path d="M15 20H5C2.2 20 0 17.8 0 15V5C0 2.2 2.2 0 5 0H15C17.8 0 20 2.2 20 5V15C20 17.8 17.8 20 15 20Z" fill="#E4AA24"/>
<path d="M10.7 3.10405V3.00405C10.7 2.90405 10.7 2.70405 10.6 2.60405C10.6 2.50405 10.5 2.40405 10.4 2.30405C10.1 2.00405 9.7 1.90405 9.3 2.10405C9.2 2.20405 9.1 2.20405 9 2.30405C8.9 2.40405 8.8 2.50405 8.8 2.60405C8.8 2.70405 8.7 2.80405 8.7 3.00405V3.10405C6 3.60405 4 5.90405 4 8.70405V11.2041V13.0041C4 13.4041 4.3 13.8041 4.8 13.8041H14.7C15.1 13.8041 15.5 13.5041 15.5 13.0041V11.3041V8.70405C15.5 5.90405 13.4 3.60405 10.7 3.10405ZM14 11.3041V12.4041H5.6V11.3041V8.70405C5.6 6.40405 7.5 4.50405 9.8 4.50405C12.1 4.50405 14 6.40405 14 8.70405V11.3041Z" fill="white"/>
<path d="M7.7002 15.0039C7.7002 16.1039 8.6002 17.0039 9.7002 17.0039C10.8002 17.0039 11.7002 16.1039 11.7002 15.0039H9.7002H7.7002Z" fill="white"/>
</svg>
