<svg width="18" height="18" viewBox="0 0 18 18" fill="none" xmlns="http://www.w3.org/2000/svg">
<path d="M13.1675 16.3113C12.9508 16.3111 12.7387 16.2492 12.5559 16.1328L9.00974 13.886C9.0071 13.8841 9.00389 13.883 9.0006 13.883C8.9973 13.883 8.9941 13.8841 8.99146 13.886L5.69591 15.974C5.48347 16.1096 5.23503 16.178 4.98312 16.1701C4.7312 16.1621 4.48754 16.0783 4.28403 15.9296C4.07335 15.7771 3.91364 15.5644 3.82582 15.3196C3.738 15.0747 3.72616 14.8091 3.79185 14.5574L4.74212 10.8195C4.74468 10.8102 4.74471 10.8004 4.7422 10.7911C4.73969 10.7817 4.73474 10.7732 4.72785 10.7665L1.54775 8.11962C1.36651 7.96905 1.2349 7.76731 1.17013 7.54076C1.10535 7.31422 1.11041 7.0734 1.18466 6.84977C1.25463 6.62917 1.38951 6.43479 1.57169 6.29205C1.75387 6.14931 1.97487 6.06485 2.20581 6.04969L6.35882 5.78018C6.36432 5.77883 6.36937 5.77604 6.37345 5.7721C6.37752 5.76816 6.38048 5.76321 6.38202 5.75775L7.931 1.85724C8.0147 1.64158 8.16162 1.45627 8.35251 1.32559C8.54339 1.19492 8.76931 1.125 9.00063 1.125C9.23196 1.125 9.45788 1.19492 9.64876 1.32559C9.83964 1.45627 9.98657 1.64158 10.0703 1.85724L11.6192 5.75768C11.6208 5.76313 11.6237 5.76809 11.6277 5.77204C11.6318 5.77599 11.6368 5.7788 11.6423 5.78018L15.7954 6.04969C16.0263 6.06485 16.2473 6.1493 16.4295 6.29201C16.6116 6.43472 16.7465 6.62906 16.8165 6.84963C16.8908 7.07326 16.8958 7.31408 16.8311 7.54062C16.7663 7.76717 16.6347 7.96891 16.4534 8.11948L13.2735 10.7663C13.2666 10.773 13.2616 10.7815 13.2591 10.7909C13.2566 10.8003 13.2566 10.8101 13.2592 10.8195L14.2838 14.8499C14.3432 15.0779 14.3324 15.3184 14.2529 15.5401C14.1733 15.7618 14.0287 15.9543 13.8379 16.0924C13.6432 16.2344 13.4085 16.311 13.1676 16.3112L13.1675 16.3113ZM9.0006 12.7593C9.21692 12.759 9.42886 12.8202 9.61175 12.9357L13.158 15.1825C13.1612 15.1847 13.1646 15.1864 13.1682 15.1876C13.1769 15.1833 13.1843 15.1769 13.1897 15.1689C13.1937 15.1628 13.1961 15.1558 13.1967 15.1485C13.1974 15.1412 13.1963 15.1339 13.1935 15.1272L12.1689 11.0966C12.1143 10.8814 12.1215 10.6552 12.1895 10.4438C12.2576 10.2325 12.3838 10.0446 12.5537 9.90162L15.7337 7.25485C15.7423 7.24842 15.7483 7.23918 15.7507 7.22876C15.753 7.21834 15.7517 7.2074 15.7468 7.19789C15.7389 7.17349 15.7306 7.17293 15.7225 7.17244L11.5695 6.90293C11.3516 6.88737 11.1425 6.81059 10.9663 6.68143C10.7901 6.55228 10.654 6.37599 10.5736 6.17288L9.02457 2.2725C9.01572 2.25 9.01002 2.25 9.0006 2.25C8.99118 2.25 8.98548 2.25 8.97655 2.2725L7.42757 6.17295C7.34713 6.37604 7.21098 6.5523 7.0348 6.68144C6.85861 6.81058 6.64955 6.88736 6.43166 6.90293L2.27872 7.17244C2.27064 7.17293 2.26234 7.17349 2.25439 7.19789C2.24951 7.2074 2.24815 7.21834 2.25054 7.22876C2.25293 7.23918 2.25893 7.24842 2.26747 7.25485L5.44757 9.90169C5.61744 10.0446 5.74363 10.2325 5.81169 10.4439C5.87975 10.6552 5.88692 10.8814 5.83239 11.0966L4.88218 14.8345C4.87153 14.8678 4.87182 14.9037 4.88303 14.9369C4.89424 14.9701 4.91577 14.9988 4.94448 15.0189C4.96521 15.0363 4.99121 15.0463 5.01829 15.0472C5.04537 15.048 5.07195 15.0398 5.09375 15.0237L8.38944 12.9357C8.57232 12.8202 8.78427 12.759 9.0006 12.7593V12.7593Z" fill="#C8C8C8"/>
</svg>
