<svg width="13" height="13" viewBox="0 0 13 13" fill="none" xmlns="http://www.w3.org/2000/svg">
<g clip-path="url(#clip0)">
<path d="M6.29999 3.19922C7.99999 3.19922 9.29999 4.59922 9.29999 6.19922C9.29999 7.79922 7.89999 9.19922 6.29999 9.19922C4.69999 9.19922 3.29999 7.79922 3.29999 6.19922C3.29999 4.59922 4.59999 3.19922 6.29999 3.19922ZM6.29999 1.69922C3.79999 1.69922 1.79999 3.69922 1.79999 6.19922C1.79999 8.69922 3.79999 10.6992 6.29999 10.6992C8.79999 10.6992 10.8 8.69922 10.8 6.19922C10.8 3.69922 8.79999 1.69922 6.29999 1.69922Z" fill="#252117"/>
<path d="M6.29999 1.9V0" stroke="#252117" stroke-width="2" stroke-miterlimit="10"/>
<path d="M6.3 3.19922C7.1 3.19922 7.9 3.49922 8.4 4.09922C9.6 5.29922 9.6 7.19922 8.4 8.39922C7.9 8.99922 7.1 9.29922 6.3 9.29922C5.5 9.29922 4.7 8.99922 4.1 8.39922C3 7.19922 3 5.29922 4.1 4.09922C4.7 3.59922 5.5 3.19922 6.3 3.19922ZM6.3 1.69922C5.1 1.69922 4 2.19922 3.1 3.09922C1.3 4.89922 1.3 7.69922 3.1 9.49922C4 10.3992 5.1 10.7992 6.3 10.7992C7.5 10.7992 8.6 10.3992 9.5 9.49922C11.3 7.69922 11.3 4.89922 9.5 3.09922C8.6 2.19922 7.4 1.69922 6.3 1.69922Z" fill="#252117"/>
<path d="M3.19999 3.20078L1.79999 1.80078" stroke="#252117" stroke-width="2" stroke-miterlimit="10"/>
<path d="M6.29999 3.19922C7.99999 3.19922 9.29999 4.59922 9.29999 6.19922C9.29999 7.79922 7.89999 9.19922 6.29999 9.19922C4.69999 9.19922 3.29999 7.79922 3.29999 6.19922C3.29999 4.59922 4.59999 3.19922 6.29999 3.19922ZM6.29999 1.69922C3.79999 1.69922 1.79999 3.69922 1.79999 6.19922C1.79999 8.69922 3.79999 10.6992 6.29999 10.6992C8.79999 10.6992 10.8 8.69922 10.8 6.19922C10.8 3.69922 8.79999 1.69922 6.29999 1.69922Z" fill="#252117"/>
<path d="M1.9 6.30078H0" stroke="#252117" stroke-width="2" stroke-miterlimit="10"/>
<path d="M6.3 3.19922C7.1 3.19922 7.9 3.49922 8.4 4.09922C9.6 5.29922 9.6 7.19922 8.4 8.39922C7.9 8.99922 7.1 9.29922 6.3 9.29922C5.5 9.29922 4.7 8.99922 4.1 8.39922C3 7.19922 3 5.29922 4.1 4.09922C4.7 3.59922 5.5 3.19922 6.3 3.19922ZM6.3 1.69922C5.1 1.69922 4 2.19922 3.1 3.09922C1.3 4.89922 1.3 7.69922 3.1 9.49922C4 10.3992 5.1 10.7992 6.3 10.7992C7.5 10.7992 8.6 10.3992 9.5 9.49922C11.3 7.69922 11.3 4.89922 9.5 3.09922C8.6 2.19922 7.4 1.69922 6.3 1.69922Z" fill="#252117"/>
<path d="M3.19999 9.40039L1.79999 10.7004" stroke="#252117" stroke-width="2" stroke-miterlimit="10"/>
<path d="M6.29999 3.19922C7.99999 3.19922 9.29999 4.59922 9.29999 6.19922C9.29999 7.79922 7.89999 9.19922 6.29999 9.19922C4.69999 9.19922 3.29999 7.79922 3.29999 6.19922C3.29999 4.59922 4.59999 3.19922 6.29999 3.19922ZM6.29999 1.69922C3.79999 1.69922 1.79999 3.69922 1.79999 6.19922C1.79999 8.69922 3.79999 10.6992 6.29999 10.6992C8.79999 10.6992 10.8 8.69922 10.8 6.19922C10.8 3.69922 8.79999 1.69922 6.29999 1.69922Z" fill="#252117"/>
<path d="M6.29999 10.6992V12.5992" stroke="#252117" stroke-width="2" stroke-miterlimit="10"/>
<path d="M6.3 3.19922C7.1 3.19922 7.9 3.49922 8.4 4.09922C9.6 5.29922 9.6 7.19922 8.4 8.39922C7.9 8.99922 7.1 9.29922 6.3 9.29922C5.5 9.29922 4.7 8.99922 4.1 8.39922C3 7.19922 3 5.29922 4.1 4.09922C4.7 3.59922 5.5 3.19922 6.3 3.19922ZM6.3 1.69922C5.1 1.69922 4 2.19922 3.1 3.09922C1.3 4.89922 1.3 7.69922 3.1 9.49922C4 10.3992 5.1 10.7992 6.3 10.7992C7.5 10.7992 8.6 10.3992 9.5 9.49922C11.3 7.69922 11.3 4.89922 9.5 3.09922C8.6 2.19922 7.4 1.69922 6.3 1.69922Z" fill="#252117"/>
<path d="M9.40002 9.40039L10.7 10.7004" stroke="#252117" stroke-width="2" stroke-miterlimit="10"/>
<path d="M6.29999 3.19922C7.99999 3.19922 9.29999 4.59922 9.29999 6.19922C9.29999 7.79922 7.89999 9.19922 6.29999 9.19922C4.69999 9.19922 3.29999 7.79922 3.29999 6.19922C3.29999 4.59922 4.59999 3.19922 6.29999 3.19922ZM6.29999 1.69922C3.79999 1.69922 1.79999 3.69922 1.79999 6.19922C1.79999 8.69922 3.79999 10.6992 6.29999 10.6992C8.79999 10.6992 10.8 8.69922 10.8 6.19922C10.8 3.69922 8.79999 1.69922 6.29999 1.69922Z" fill="#252117"/>
<path d="M10.7 6.30078H12.6" stroke="#252117" stroke-width="2" stroke-miterlimit="10"/>
<path d="M6.3 3.19922C7.1 3.19922 7.9 3.49922 8.4 4.09922C9.6 5.29922 9.6 7.19922 8.4 8.39922C7.9 8.99922 7.1 9.29922 6.3 9.29922C5.5 9.29922 4.7 8.99922 4.1 8.39922C3 7.19922 3 5.29922 4.1 4.09922C4.7 3.59922 5.5 3.19922 6.3 3.19922ZM6.3 1.69922C5.1 1.69922 4 2.19922 3.1 3.09922C1.3 4.89922 1.3 7.69922 3.1 9.49922C4 10.3992 5.1 10.7992 6.3 10.7992C7.5 10.7992 8.6 10.3992 9.5 9.49922C11.3 7.69922 11.3 4.89922 9.5 3.09922C8.6 2.19922 7.4 1.69922 6.3 1.69922Z" fill="#252117"/>
<path d="M9.40002 3.20078L10.7 1.80078" stroke="#252117" stroke-width="2" stroke-miterlimit="10"/>
</g>
<defs>
<clipPath id="clip0">
<rect width="12.6" height="12.6" fill="white"/>
</clipPath>
</defs>
</svg>
