<svg width="16" height="16" viewBox="0 0 16 16" fill="none" xmlns="http://www.w3.org/2000/svg">
<path d="M7.9987 1.33398C6.68016 1.33398 5.39123 1.72498 4.2949 2.45752C3.19857 3.19006 2.34409 4.23125 1.8395 5.44943C1.33492 6.6676 1.2029 8.00805 1.46013 9.30125C1.71737 10.5945 2.35231 11.7823 3.28466 12.7147C4.21701 13.647 5.40489 14.282 6.6981 14.5392C7.99131 14.7965 9.33175 14.6644 10.5499 14.1598C11.7681 13.6553 12.8093 12.8008 13.5418 11.7045C14.2744 10.6081 14.6654 9.31919 14.6654 8.00065C14.6654 7.12517 14.4929 6.25827 14.1579 5.44943C13.8229 4.64059 13.3318 3.90566 12.7127 3.28661C12.0937 2.66755 11.3588 2.17649 10.5499 1.84145C9.74109 1.50642 8.87418 1.33398 7.9987 1.33398ZM7.9987 13.334C6.94387 13.334 5.91272 13.0212 5.03566 12.4352C4.1586 11.8491 3.47501 11.0162 3.07134 10.0416C2.66768 9.06709 2.56206 7.99474 2.76785 6.96017C2.97363 5.9256 3.48158 4.9753 4.22746 4.22941C4.97334 3.48354 5.92365 2.97558 6.95822 2.7698C7.99278 2.56401 9.06514 2.66963 10.0397 3.07329C11.0142 3.47696 11.8472 4.16055 12.4332 5.03761C13.0192 5.91467 13.332 6.94582 13.332 8.00065C13.332 9.41514 12.7701 10.7717 11.7699 11.7719C10.7697 12.7721 9.41319 13.334 7.9987 13.334Z" fill="#989898"/>
<path d="M7.9987 6.0013C8.36689 6.0013 8.66536 5.70283 8.66536 5.33464C8.66536 4.96645 8.36689 4.66797 7.9987 4.66797C7.63051 4.66797 7.33203 4.96645 7.33203 5.33464C7.33203 5.70283 7.63051 6.0013 7.9987 6.0013Z" fill="#989898"/>
<path d="M7.9987 6.66797C7.82189 6.66797 7.65232 6.73821 7.52729 6.86323C7.40227 6.98826 7.33203 7.15782 7.33203 7.33464V10.668C7.33203 10.8448 7.40227 11.0143 7.52729 11.1394C7.65232 11.2644 7.82189 11.3346 7.9987 11.3346C8.17551 11.3346 8.34508 11.2644 8.4701 11.1394C8.59513 11.0143 8.66536 10.8448 8.66536 10.668V7.33464C8.66536 7.15782 8.59513 6.98826 8.4701 6.86323C8.34508 6.73821 8.17551 6.66797 7.9987 6.66797Z" fill="#989898"/>
</svg>
