<svg width="18" height="18" viewBox="0 0 18 18" fill="none" xmlns="http://www.w3.org/2000/svg">
<g clip-path="url(#clip0)">
<path d="M15.5 15V3H2V15H15.5ZM14 4.5V12.3L11.6079 8.19924C11.4205 7.87808 10.9607 7.86648 10.7574 8.17778L8 12.4L6.60054 9.98982C6.41529 9.67078 5.96013 9.65537 5.75372 9.96115L3.5 13.3V4.5H14Z" fill="#A0AFBF"/>
<path d="M7.60078 8.1C8.30078 8.1 8.90078 7.5 8.90078 6.8C8.90078 6.1 8.30078 5.5 7.60078 5.5C6.90078 5.5 6.30078 6.1 6.30078 6.8C6.30078 7.6 6.80078 8.1 7.60078 8.1Z" fill="#A0AFBF"/>
</g>
<defs>
<clipPath id="clip0">
<rect width="13.5" height="12" fill="white" transform="translate(2 3)"/>
</clipPath>
</defs>
</svg>
