<svg width="32" height="32" viewBox="0 0 32 32" fill="none" xmlns="http://www.w3.org/2000/svg">
<circle cx="16" cy="16" r="16" fill="#E6B33F"/>
<g clip-path="url(#clip0)">
<path d="M7.38232 21.5482C8.05879 21.8063 9.00585 21.4192 9.27644 20.774C9.68232 20.1289 9.68232 19.3547 9.68232 18.5805C9.68232 17.9353 9.68232 17.1611 9.68232 16.516C9.68232 15.8708 9.68232 15.0966 10.0882 14.4515C10.4941 13.8063 11.1706 13.2902 11.847 13.5482C12.7941 13.6773 13.2 14.4515 13.4706 15.2257C13.7411 15.9999 14.0117 16.774 14.6882 17.1611C15.0941 17.5482 15.7706 17.4192 16.3117 17.0321C16.9882 16.516 17.8 11.6128 18.0706 10.8386C18.3411 9.80631 18.3411 9.16114 19.1529 8.77405C19.6941 8.51598 20.7764 8.77405 21.3176 9.80631C21.5882 10.5805 21.7235 11.4837 21.7235 11.4837C21.9941 12.516 22.2647 17.9353 23.347 18.3224" stroke="white" stroke-width="1.5" stroke-miterlimit="10"/>
<path d="M24 20C24.5523 20 25 19.5523 25 19C25 18.4477 24.5523 18 24 18C23.4477 18 23 18.4477 23 19C23 19.5523 23.4477 20 24 20Z" stroke="white" stroke-width="1.5" stroke-miterlimit="10"/>
<path d="M7 23C7.55228 23 8 22.5523 8 22C8 21.4477 7.55228 21 7 21C6.44772 21 6 21.4477 6 22C6 22.5523 6.44772 23 7 23Z" stroke="white" stroke-width="1.5" stroke-miterlimit="10"/>
</g>
<defs>
<clipPath id="clip0">
<rect width="23" height="16" fill="white" transform="translate(4 8)"/>
</clipPath>
</defs>
</svg>
