<svg width="18" height="18" viewBox="0 0 18 18" fill="none" xmlns="http://www.w3.org/2000/svg">
<path d="M5.64905 6.16263C5.59682 6.11039 5.55539 6.04837 5.52714 5.98012C5.49888 5.91186 5.48434 5.83871 5.48435 5.76484C5.48437 5.69097 5.49893 5.61783 5.52721 5.54958C5.5555 5.48134 5.59694 5.41934 5.64919 5.36711L8.60231 2.41469C8.7078 2.30924 8.85085 2.25 9 2.25C9.14915 2.25 9.2922 2.30924 9.39769 2.41469L12.3508 5.36711C12.404 5.41913 12.4464 5.48117 12.4754 5.54966C12.5045 5.61815 12.5196 5.69173 12.5201 5.76613C12.5205 5.84052 12.5062 5.91426 12.4779 5.98308C12.4496 6.0519 12.408 6.11442 12.3554 6.16704C12.3028 6.21965 12.2402 6.2613 12.1714 6.28959C12.1026 6.31787 12.0289 6.33222 11.9545 6.33181C11.8801 6.3314 11.8065 6.31624 11.738 6.2872C11.6695 6.25816 11.6075 6.21582 11.5554 6.16263L9.5625 4.17025V10.6875C9.5625 10.8367 9.50324 10.9798 9.39775 11.0853C9.29226 11.1908 9.14918 11.25 9 11.25C8.85082 11.25 8.70774 11.1908 8.60225 11.0853C8.49676 10.9798 8.4375 10.8367 8.4375 10.6875V4.17025L6.44456 6.16263C6.39233 6.21487 6.33032 6.2563 6.26207 6.28457C6.19382 6.31284 6.12068 6.32739 6.0468 6.32739C5.97293 6.32739 5.89979 6.31284 5.83154 6.28457C5.76329 6.2563 5.70128 6.21487 5.64905 6.16263ZM15.1875 10.125C15.0383 10.125 14.8952 10.1843 14.7898 10.2898C14.6843 10.3953 14.625 10.5383 14.625 10.6875V14.625H3.375V10.6875C3.375 10.5383 3.31574 10.3953 3.21025 10.2898C3.10476 10.1843 2.96168 10.125 2.8125 10.125C2.66332 10.125 2.52024 10.1843 2.41475 10.2898C2.30926 10.3953 2.25 10.5383 2.25 10.6875V14.625C2.25033 14.9233 2.36897 15.2092 2.57987 15.4201C2.79078 15.6311 3.07673 15.7497 3.375 15.75H14.625C14.9233 15.7497 15.2092 15.6311 15.4201 15.4201C15.631 15.2092 15.7497 14.9233 15.75 14.625V10.6875C15.75 10.5383 15.6907 10.3953 15.5852 10.2898C15.4798 10.1843 15.3367 10.125 15.1875 10.125Z" fill="#C8C8C8"/>
</svg>
