<svg width="20" height="20" viewBox="0 0 20 20" fill="none" xmlns="http://www.w3.org/2000/svg">
<path d="M15 20H5C2.2 20 0 17.8 0 15V5C0 2.2 2.2 0 5 0H15C17.8 0 20 2.2 20 5V15C20 17.8 17.8 20 15 20Z" fill="#C82C20"/>
<path d="M10 7C12.4 7 14.3 8.9 14.3 11.3C14.3 13.7 12.4 15.6 10 15.6C7.6 15.6 5.7 13.7 5.7 11.3C5.7 8.9 7.6 7 10 7ZM10 5C6.5 5 3.7 7.8 3.7 11.3C3.7 14.8 6.5 17.6 10 17.6C13.5 17.6 16.3 14.8 16.3 11.3C16.3 7.8 13.5 5 10 5Z" fill="white"/>
<path d="M11.5 2.80005H8.5V9.60005H11.5V2.80005Z" fill="white"/>
<path d="M11 3.30005V9.10005H9V3.30005H11ZM12 2.30005H11H9H8V3.30005V9.10005V10.1H9H11H12V9.10005V3.30005V2.30005Z" fill="#C82C20"/>
</svg>
