<svg width="32" height="24" viewBox="0 0 32 24" fill="none" xmlns="http://www.w3.org/2000/svg">
<g clip-path="url(#clip0)">
<path d="M23.3474 20.3141C19.8485 22.4179 16.9681 22.7384 13.7245 21.3844C12.3264 20.8047 10.8592 19.9147 9.17141 18.6208C7.78555 16.6933 7.04399 14.3556 7.05783 11.9579C7.07167 9.56027 7.84017 7.23179 9.24818 5.32133C10.9035 4.05636 12.3513 3.18968 13.7255 2.61672C16.9692 1.26274 19.8485 1.58204 23.3485 3.68699C23.4479 3.74668 23.5577 3.78563 23.6717 3.80163C23.7857 3.81763 23.9017 3.81037 24.013 3.78026C24.1243 3.75014 24.2287 3.69776 24.3204 3.62612C24.412 3.55447 24.489 3.46496 24.547 3.36268C24.605 3.26041 24.6429 3.14739 24.6584 3.03006C24.674 2.91273 24.6669 2.7934 24.6376 2.67888C24.6084 2.56437 24.5575 2.4569 24.4878 2.36262C24.4182 2.26834 24.3312 2.1891 24.2318 2.12942C20.2648 -0.25367 16.8222 -0.6197 13.0671 0.946774C9.70662 2.34859 6.02829 5.28573 0.373469 11.0766C0.255257 11.1976 0.161453 11.3415 0.0974459 11.5C0.0334384 11.6585 0.000488281 11.8284 0.000488281 12C0.000488281 12.1716 0.0334384 12.3415 0.0974459 12.5C0.161453 12.6585 0.255257 12.8024 0.373469 12.9234C6.02829 18.7176 9.70662 21.6525 13.0671 23.0543C14.5808 23.6829 16.0329 24.0011 17.5001 24C19.6777 24 21.8639 23.2969 24.2361 21.8694C24.4369 21.7489 24.5829 21.5513 24.642 21.32C24.7011 21.0887 24.6685 20.8427 24.5513 20.6362C24.4342 20.4296 24.2421 20.2794 24.0173 20.2186C23.7926 20.1578 23.5535 20.1913 23.3528 20.3119L23.3474 20.3141Z" fill="#E4AA24"/>
<path d="M31.829 3.18652C31.3532 3.35452 30.871 3.52696 30.4082 3.7428L30.0579 3.90301C29.9422 3.95752 29.8309 4.01983 29.7162 4.07879C29.4914 4.20006 29.2578 4.31354 29.0351 4.4426C28.1412 4.96074 27.2822 5.5402 26.4639 6.17707C25.6454 6.81345 24.868 7.49544 24.1112 8.2008L23.5597 8.7415C23.3738 8.92174 23.1921 9.10308 23.0191 9.28777L22.485 9.84404L21.9595 10.4003C21.3378 11.0801 20.6685 11.7198 20.0274 12.3762C19.9506 12.3095 19.8728 12.2438 19.7949 12.1804C19.3289 11.8071 18.8206 11.4933 18.2812 11.2459C17.7485 10.9986 17.1853 10.8279 16.6074 10.7385C16.4626 10.7174 16.3144 10.704 16.1695 10.6929C16.0247 10.6818 15.8733 10.6829 15.7284 10.6862C15.5807 10.6925 15.4335 10.7066 15.2873 10.7285C15.1409 10.7558 14.9964 10.7929 14.8548 10.8398L14.7812 11.2325C14.8807 11.3438 14.977 11.425 15.0656 11.5207C15.1543 11.6163 15.2419 11.7076 15.3251 11.8044C15.4916 11.9946 15.6495 12.1815 15.7954 12.3707C15.869 12.4674 15.9425 12.5576 16.0117 12.6521C16.0809 12.7467 16.1522 12.8413 16.2204 12.9336C16.2885 13.0259 16.3534 13.125 16.4182 13.2184C16.4831 13.3119 16.5447 13.4087 16.6085 13.4988C16.8561 13.8726 17.0843 14.2409 17.2832 14.6002C17.4707 14.9324 17.6344 15.2782 17.773 15.6349C17.8108 15.7161 17.8292 15.794 17.8584 15.8696L17.879 15.9264L17.8898 15.9542V15.9609L17.9006 15.9853C17.9208 16.0291 17.9424 16.0714 17.9655 16.1122C18.152 16.4598 18.4186 16.7551 18.7418 16.9722C19.2243 17.2964 19.8043 17.4309 20.3754 17.3511C20.9465 17.2712 21.4705 16.9822 21.8514 16.5372C21.8828 16.5016 21.9119 16.4648 21.9411 16.4259L21.9714 16.387L21.9995 16.3491L22.0557 16.2735C22.3487 15.8672 22.6201 15.4449 22.8688 15.0085C23.1186 14.5702 23.3575 14.1296 23.603 13.6913C23.8484 13.2529 24.1058 12.8268 24.3782 12.4152L24.788 11.7966L25.2032 11.1858C25.4768 10.7741 25.7611 10.3781 26.0422 9.97421C26.3234 9.57035 26.6088 9.17317 26.9072 8.78712C27.0543 8.59353 27.1959 8.38994 27.3484 8.20191L27.8036 7.62784C27.9549 7.43648 28.115 7.25513 28.2717 7.07156L28.5031 6.78675L28.7486 6.5164C28.9129 6.33839 29.0729 6.14925 29.2427 5.97681C29.4124 5.80436 29.5833 5.62969 29.7541 5.45279C29.9249 5.2759 30.1077 5.11903 30.2861 4.94881C30.3758 4.86648 30.4645 4.7797 30.5564 4.6996L30.8375 4.46373L31.1197 4.22787C31.1662 4.18782 31.2127 4.14666 31.2613 4.10772L31.4084 3.99646C31.6052 3.84812 31.8023 3.69793 31.9998 3.54588L31.829 3.18652ZM18.7461 13.8581L18.7396 13.867L18.7515 13.8503L18.7461 13.8581Z" fill="#E4AA24"/>
</g>
<defs>
<clipPath id="clip0">
<rect width="32" height="24" fill="white"/>
</clipPath>
</defs>
</svg>
