<svg width="40" height="40" viewBox="0 0 40 40" fill="none" xmlns="http://www.w3.org/2000/svg">
<rect width="40" height="40" rx="20" fill="#D1CDB2"/>
<g clip-path="url(#clip0)">
<path d="M19.5196 5C10.9505 5 4.03992 12.0833 4.03992 20.8667C4.03992 29.65 10.9505 36.7333 19.5196 36.7333C28.0887 36.7333 34.9993 29.65 34.9993 20.8667C34.9993 12.0833 28.0887 5 19.5196 5ZM19.5196 33.9C12.609 33.9 6.80414 27.95 6.80414 20.8667C6.80414 13.7833 12.609 7.83333 19.5196 7.83333C26.4302 7.83333 32.235 13.7833 32.235 20.8667C32.235 27.95 26.4302 33.9 19.5196 33.9Z" fill="#FCF6E8"/>
<path d="M19.5196 10.6666C13.9911 10.6666 9.56836 15.2 9.56836 20.8666C9.56836 26.5333 13.9911 31.0666 19.5196 31.0666C25.048 31.0666 29.4708 26.5333 29.4708 20.8666C29.4708 15.2 25.048 10.6666 19.5196 10.6666ZM19.5196 28.2333C15.6497 28.2333 12.3326 24.8333 12.3326 20.8666C12.3326 16.6166 15.6497 13.5 19.5196 13.5C23.3895 13.5 26.7066 16.9 26.7066 20.8666C26.7066 24.8333 23.3895 28.2333 19.5196 28.2333Z" fill="#FCF6E8"/>
<path d="M19.5192 16.6195C17.3078 16.6195 15.3729 18.6028 15.3729 20.8695C15.3729 23.1362 17.3078 25.1195 19.5192 25.1195C21.7306 25.1195 23.6655 23.1362 23.6655 20.8695C23.6655 18.6028 21.7306 16.6195 19.5192 16.6195Z" fill="#FCF6E8"/>
<path d="M18.6911 19.4529H7.35772V22.2862H15.374L1 37.0195L2.93496 39.0029L17.3089 24.2695V32.4862H20.0732V20.8695C20.0732 20.0195 19.5203 19.4529 18.6911 19.4529Z" fill="white"/>
</g>
<defs>
<clipPath id="clip0">
<rect width="34" height="34" fill="white" transform="translate(1 5)"/>
</clipPath>
</defs>
</svg>
