<svg width="12" height="7" viewBox="0 0 12 7" fill="none" xmlns="http://www.w3.org/2000/svg">
<path d="M5.99959 6.74959C5.90108 6.74971 5.80352 6.73037 5.71251 6.69267C5.6215 6.65497 5.53884 6.59965 5.46928 6.5299L0.469275 1.5299C0.330515 1.38886 0.253107 1.19871 0.253912 1.00085C0.254718 0.803 0.333672 0.61348 0.473576 0.473576C0.61348 0.333672 0.803 0.254718 1.00085 0.253912C1.19871 0.253107 1.38886 0.330515 1.5299 0.469275L5.99959 4.9389L10.4693 0.469275C10.6103 0.330515 10.8005 0.253107 10.9983 0.253912C11.1962 0.254718 11.3857 0.333672 11.5256 0.473576C11.6655 0.61348 11.7445 0.803 11.7453 1.00085C11.7461 1.19871 11.6687 1.38886 11.5299 1.5299L6.5299 6.5299C6.46034 6.59965 6.37768 6.65497 6.28667 6.69267C6.19566 6.73037 6.0981 6.74971 5.99959 6.74959Z" fill="#252117"/>
</svg>
